<?xml version="1.0" standalone="no"?>
<!DOCTYPE svg PUBLIC "-//W3C//DTD SVG 20010904//EN"
 "http://www.w3.org/TR/2001/REC-SVG-20010904/DTD/svg10.dtd">
<svg version="1.0" xmlns="http://www.w3.org/2000/svg"
 width="2100.000000pt" height="1425.000000pt" viewBox="0 0 2100.000000 1425.000000"
 preserveAspectRatio="xMidYMid meet">
<metadata>
Created by potrace 1.16, written by Peter Selinger 2001-2019
</metadata>
<g transform="translate(0.000000,1425.000000) scale(0.100000,-0.100000)"
fill="#000000" stroke="none">
<path d="M4755 14243 c-884 -72 -1636 -307 -2350 -736 -650 -390 -1204 -924
-1621 -1562 -444 -680 -704 -1441 -774 -2270 -13 -154 -13 -595 0 -750 86
-1020 466 -1944 1129 -2745 113 -137 433 -461 569 -577 230 -195 548 -421 787
-558 587 -336 1262 -562 1938 -650 437 -56 1106 -65 1536 -20 1363 142 2512
791 3542 2000 266 311 580 735 864 1163 59 89 111 162 115 162 4 0 46 -60 95
-132 48 -73 135 -202 194 -287 58 -84 113 -163 121 -175 8 -11 66 -91 129
-176 903 -1223 1834 -1965 2921 -2327 599 -199 1178 -275 1936 -253 626 19
1015 78 1520 231 461 139 907 347 1319 614 310 200 600 439 866 712 809 834
1290 1894 1379 3042 15 195 12 559 -5 761 -46 520 -167 1008 -368 1480 -336
791 -885 1493 -1570 2008 -314 235 -528 367 -879 536 -601 291 -1224 457
-1906 507 -209 15 -780 6 -992 -15 -720 -73 -1315 -240 -1925 -541 -235 -116
-300 -152 -510 -283 -776 -484 -1519 -1239 -2233 -2267 -45 -66 -87 -120 -92
-120 -4 0 -78 97 -162 215 -256 357 -480 644 -703 900 -234 269 -744 758 -956
915 -14 11 -73 55 -130 99 -515 389 -1139 703 -1754 880 -391 113 -803 185
-1235 216 -131 9 -696 11 -795 3z m650 -1753 c571 -38 1045 -163 1510 -399
720 -366 1338 -960 2040 -1961 146 -208 495 -744 495 -760 0 -27 -460 -749
-691 -1085 -531 -772 -1037 -1312 -1549 -1651 -427 -284 -858 -442 -1395 -511
-115 -15 -206 -18 -505 -17 -201 1 -423 7 -495 13 -979 88 -1845 556 -2431
1316 -70 91 -195 289 -263 415 -216 401 -333 813 -363 1272 -20 307 6 594 82
904 108 439 308 848 591 1204 108 136 385 414 519 520 462 364 994 601 1572
700 101 17 205 29 383 43 92 8 360 6 500 -3z m10705 0 c627 -47 1190 -239
1700 -580 309 -207 620 -511 847 -826 125 -174 274 -450 358 -664 309 -787
278 -1669 -85 -2427 -478 -997 -1418 -1678 -2555 -1849 -224 -33 -773 -53
-1024 -36 -878 59 -1572 395 -2257 1093 -299 304 -555 623 -882 1096 -206 298
-682 1045 -682 1071 0 24 285 463 498 767 177 252 396 541 518 685 12 14 50
59 85 100 292 343 673 692 994 912 643 440 1364 659 2200 667 83 0 211 -4 285
-9z"/>
<path d="M3490 9445 l0 -385 1755 0 1755 0 0 385 0 385 -1755 0 -1755 0 0
-385z"/>
<path d="M15110 10415 l0 -475 -470 0 -470 0 0 -495 0 -495 470 0 470 0 0
-475 0 -475 500 0 500 0 0 475 0 475 470 0 470 0 0 495 0 495 -470 0 -470 0 0
475 0 475 -500 0 -500 0 0 -475z"/>
<path d="M19700 13825 l0 -55 75 0 75 0 0 -195 0 -195 60 0 60 0 0 195 0 195
75 0 75 0 0 55 0 55 -210 0 -210 0 0 -55z"/>
<path d="M20130 13630 l0 -250 55 0 55 0 1 143 1 142 45 -142 46 -143 52 0 51
0 41 138 42 137 0 -137 1 -138 55 0 55 0 0 250 0 250 -74 0 -75 0 -26 -87
c-15 -49 -37 -121 -49 -161 l-23 -73 -32 103 c-18 57 -40 128 -50 158 l-18 55
-76 3 -77 3 0 -251z"/>
<path d="M19463 3510 c-171 -15 -388 -72 -518 -137 -174 -88 -379 -269 -484
-428 -156 -236 -255 -534 -292 -875 -18 -162 -15 -544 5 -708 39 -324 107
-551 228 -761 176 -308 436 -494 798 -571 129 -28 441 -39 572 -21 668 94
1084 553 1205 1331 23 145 26 700 5 845 -89 616 -312 990 -711 1192 -200 101
-534 156 -808 133z m290 -659 c126 -33 209 -87 284 -186 130 -172 203 -503
203 -921 0 -765 -228 -1123 -700 -1101 -318 15 -494 197 -574 598 -74 368 -57
907 38 1187 82 239 234 393 429 432 81 16 239 11 320 -9z"/>
<path d="M1246 3383 c-14 -43 -82 -265 -151 -493 -70 -228 -153 -500 -185
-605 -64 -207 -210 -685 -321 -1050 -39 -126 -81 -264 -94 -305 -13 -41 -48
-156 -79 -255 -30 -99 -84 -276 -120 -394 -36 -118 -66 -218 -66 -222 0 -5
164 -9 365 -9 285 0 365 3 365 13 0 10 78 275 166 565 l25 82 569 0 c533 0
569 -1 574 -17 32 -108 125 -433 151 -523 l32 -115 402 -3 c380 -2 402 -1 397
15 -3 10 -61 200 -130 423 -68 223 -154 504 -191 625 -37 121 -113 371 -170
555 -56 184 -133 434 -170 555 -37 121 -112 366 -167 545 -101 329 -153 500
-191 623 l-20 67 -483 0 -482 0 -26 -77z m559 -988 c35 -121 107 -371 160
-555 53 -184 110 -379 126 -434 16 -54 29 -100 29 -102 0 -2 -178 -4 -396 -4
-373 0 -396 1 -391 18 2 9 73 251 157 537 84 286 171 584 194 662 32 114 42
138 49 120 5 -12 37 -121 72 -242z"/>
<path d="M3540 1755 l0 -1705 365 0 365 0 0 691 0 692 103 -5 c203 -10 334
-98 421 -283 42 -89 333 -729 455 -1000 l40 -90 425 -3 c235 -1 426 0 426 2 0
5 -313 642 -487 991 -194 387 -256 484 -375 578 l-49 39 73 25 c403 136 611
475 569 927 -22 234 -93 396 -236 539 -142 141 -348 234 -620 276 -157 25
-328 31 -887 31 l-588 0 0 -1705z m1253 1076 c205 -54 294 -146 317 -325 24
-190 -56 -343 -224 -428 -110 -55 -190 -70 -413 -75 l-203 -5 0 432 0 433 223
-6 c182 -4 236 -9 300 -26z"/>
<path d="M6400 1755 l0 -1707 578 5 c615 6 687 11 910 61 578 130 957 484
1108 1035 90 330 107 769 44 1135 -58 330 -184 593 -375 781 -207 204 -468
318 -860 376 -53 8 -303 13 -742 16 l-663 4 0 -1706z m1270 1081 c343 -70 531
-281 601 -676 27 -148 37 -469 20 -634 -46 -444 -224 -705 -556 -815 -121 -40
-213 -51 -426 -51 l-179 0 0 1101 0 1102 233 -6 c145 -4 260 -12 307 -21z"/>
<path d="M9373 2228 c3 -1208 4 -1235 25 -1343 91 -470 331 -728 782 -838 161
-40 286 -50 524 -44 174 5 230 10 321 30 113 26 241 69 317 108 147 75 315
222 402 353 55 83 121 228 151 331 61 212 59 160 62 1453 l4 1182 -366 0 -365
0 0 -1152 c0 -955 -3 -1169 -15 -1249 -38 -258 -149 -398 -355 -450 -83 -21
-319 -18 -395 5 -142 43 -231 113 -289 229 -72 143 -69 84 -73 1420 l-4 1197
-365 0 -365 0 4 -1232z"/>
<path d="M12510 3165 l0 -295 380 0 380 0 0 -1110 0 -1110 -380 0 -380 0 0
-300 0 -300 1125 0 1124 0 3 300 3 300 -377 0 -378 0 0 1110 0 1110 378 0 377
0 0 295 0 295 -1127 0 -1128 0 0 -295z"/>
<path d="M15330 1755 l0 -1705 335 0 335 0 2 1132 3 1131 34 -79 c19 -43 93
-205 164 -359 308 -666 438 -947 491 -1059 31 -65 56 -119 56 -121 0 -2 29
-64 65 -140 36 -75 65 -138 65 -139 0 -2 24 -55 54 -117 29 -63 67 -144 84
-181 l31 -68 425 0 426 0 0 1705 0 1705 -335 0 -335 0 -2 -1104 -3 -1105 -35
82 c-44 105 -50 118 -480 1032 -199 424 -396 843 -438 933 l-75 162 -434 0
-433 0 0 -1705z"/>
</g>
</svg>
